<?xml version="1.0" encoding="UTF-8" standalone="no"?>
<!-- Generator: Adobe Illustrator 16.0.3, SVG Export Plug-In . SVG Version: 6.00 Build 0)  -->

<svg
   xmlns:dc="http://purl.org/dc/elements/1.1/"
   xmlns:cc="http://creativecommons.org/ns#"
   xmlns:rdf="http://www.w3.org/1999/02/22-rdf-syntax-ns#"
   xmlns:svg="http://www.w3.org/2000/svg"
   xmlns="http://www.w3.org/2000/svg"
   xmlns:sodipodi="http://sodipodi.sourceforge.net/DTD/sodipodi-0.dtd"
   xmlns:inkscape="http://www.inkscape.org/namespaces/inkscape"
   version="1.1"
   id="idObservableLayer"
   x="0px"
   y="0px"
   width="100%"
   height="100%"
   viewBox="0 0 144 144"
   enable-background="new 0 0 144 144"
   xml:space="preserve"
   inkscape:version="0.48.4 r9939"
   sodipodi:docname="observable.svg"><metadata
     id="metadata3346"><rdf:RDF><cc:Work
         rdf:about=""><dc:format>image/svg+xml</dc:format><dc:type
           rdf:resource="http://purl.org/dc/dcmitype/StillImage" /><dc:title></dc:title></cc:Work></rdf:RDF></metadata><defs
     id="defs3344"><inkscape:perspective
       sodipodi:type="inkscape:persp3d"
       inkscape:vp_x="0 : 72 : 1"
       inkscape:vp_y="0 : 1000 : 0"
       inkscape:vp_z="144 : 72 : 1"
       inkscape:persp3d-origin="72 : 48 : 1"
       id="perspective4122" /></defs><sodipodi:namedview
     pagecolor="#ffffff"
     bordercolor="#666666"
     borderopacity="1"
     objecttolerance="10"
     gridtolerance="10"
     guidetolerance="10"
     inkscape:pageopacity="0"
     inkscape:pageshadow="2"
     inkscape:window-width="1680"
     inkscape:window-height="1000"
     id="namedview3342"
     showgrid="false"
     inkscape:zoom="2.8284271"
     inkscape:cx="-18.626454"
     inkscape:cy="76.981075"
     inkscape:window-x="0"
     inkscape:window-y="0"
     inkscape:window-maximized="1"
     inkscape:current-layer="idObservableLayer" /><path
     sodipodi:type="arc"
     style="fill:none;stroke:#677eac;stroke-width:5.4000001;stroke-miterlimit:4;stroke-opacity:1;stroke-dasharray:none"
     id="path3348"
     sodipodi:cx="103.93846"
     sodipodi:cy="100.06154"
     sodipodi:rx="39.203846"
     sodipodi:ry="39.203846"
     d="m 143.14231,100.06154 a 39.203846,39.203846 0 1 1 -78.407695,0 39.203846,39.203846 0 1 1 78.407695,0 z"
     transform="matrix(-1,0,0,-1,205.89868,202.12519)" /><switch
     id="switch3256"
     transform="scale(0.87519156,0.87519156)"><g
       id="g3258"><g
         id="g3260"><g
           id="g3262"><linearGradient
             id="idObservableBackgroundGradient"
             gradientUnits="userSpaceOnUse"
             x1="72.000504"
             y1="143.99899"
             x2="72.000504"
             y2="0"><stop
               offset="0"
               style="stop-color:#000000"
               id="stop3265" /><stop
               offset="0.0419"
               style="stop-color:#0E1117"
               id="stop3267" /><stop
               offset="0.1484"
               style="stop-color:#2E384D"
               id="stop3269" /><stop
               offset="0.2591"
               style="stop-color:#4B5B7D"
               id="stop3271" /><stop
               offset="0.3715"
               style="stop-color:#6379A5"
               id="stop3273" /><stop
               offset="0.4862"
               style="stop-color:#7691C5"
               id="stop3275" /><stop
               offset="0.6037"
               style="stop-color:#86A3DF"
               id="stop3277" /><stop
               offset="0.7254"
               style="stop-color:#90B1F1"
               id="stop3279" /><stop
               offset="0.8537"
               style="stop-color:#97B8FC"
               id="stop3281" /><stop
               offset="1"
               style="stop-color:#99BBFF"
               id="stop3283" /></linearGradient><path
             d="M 126.004,0 H 17.996 C 8.094,0 0,8.095 0,17.997 v 108.007 c 0,9.902 8.094,17.995 17.996,17.995 h 108.008 c 9.902,0 17.996,-8.093 17.996,-17.995 V 17.997 C 144,8.095 135.906,0 126.004,0 z"
             id="path3285"
             style="fill:url(#idObservableBackgroundGradient)"
             inkscape:connector-curvature="0" /></g><defs
           id="defs3287"><filter
             id="idObservableFilter"
             filterUnits="userSpaceOnUse"
             x="0"
             y="0"
             width="144"
             height="144"
             color-interpolation-filters="sRGB"><feColorMatrix
               type="matrix"
               values="-1 0 0 0 1  0 -1 0 0 1  0 0 -1 0 1  0 0 0 1 0"
               color-interpolation-filters="sRGB"
               result="source"
               id="feColorMatrix3290" /></filter></defs><mask
           maskUnits="userSpaceOnUse"
           x="0"
           y="0"
           width="144"
           height="144"
           id="idObservableMask"><g
             id="g3293"
             style="filter:url(#idObservableFilter)" /></mask><g
           mask="url(#idObservableMask)"
           id="g3295"
           style="opacity:0.6"><path
             d="M 126.004,0 H 17.996 C 8.094,0 0,8.095 0,17.997 v 108.007 c 0,9.902 8.094,17.995 17.996,17.995 h 108.008 c 9.902,0 17.996,-8.093 17.996,-17.995 V 17.997 C 144,8.095 135.906,0 126.004,0 z"
             id="path3297"
             inkscape:connector-curvature="0" /></g></g><g
         id="g3299"><g
           id="g3301"><g
             id="g3303"><g
               id="g3305"><g
                 id="g3307"><path
                   d="m 84.774,71.807 c 7.39,0 14.331,-2.881 19.552,-8.092 5.225,-5.241 8.104,-12.181 8.104,-19.57 0,-7.392 -2.881,-14.336 -8.104,-19.558 -5.221,-5.223 -12.162,-8.102 -19.552,-8.102 -7.39,0 -14.333,2.878 -19.552,8.102 -5.233,5.221 -8.107,12.166 -8.107,19.558 0,7.39 2.874,14.33 8.107,19.57 5.22,5.211 12.163,8.092 19.552,8.092 l 0,0 z m 0,-50.854 c 6.198,0 12.019,2.412 16.401,6.793 9.039,9.04 9.039,23.757 0,32.804 -4.383,4.374 -10.203,6.783 -16.401,6.783 -6.192,0 -12.013,-2.409 -16.396,-6.783 -4.383,-4.384 -6.795,-10.212 -6.795,-16.406 0,-6.192 2.412,-12.019 6.795,-16.398 4.383,-4.382 10.204,-6.793 16.396,-6.793 l 0,0 z M 65.458,68.72 60.203,63.462 33.89,89.773 39.16,95.031 65.458,68.72 z"
                   id="path3309"
                   inkscape:connector-curvature="0"
                   style="fill:#ffffff" /></g></g><g
               id="g3311"
               style="opacity:0.85"><path
                 d="m 90.615,27.711 c 2.285,0 4.158,1.87 4.158,4.158 v 24.042 c 0,2.333 -1.783,4.162 -4.158,4.162 H 78.388 c -2.368,0 -4.163,-1.829 -4.163,-4.162 V 31.869 c 0,-2.288 1.873,-4.158 4.163,-4.158 h 12.227 z m 0,28.2 V 31.869 H 78.388 v 24.042 h 12.227 z"
                 id="path3313"
                 inkscape:connector-curvature="0"
                 style="fill:#ffffff" /></g><g
               id="g3315"
               style="opacity:0.75"><path
                 d="m 123.789,60.614 v -3.936 c 0,-0.565 0.256,-0.973 0.973,-0.973 0.725,0 0.975,0.408 0.975,0.973 v 4.905 c 0,0.708 -0.469,0.975 -0.975,0.975 h -7.666 c -0.51,0 -0.977,-0.267 -0.977,-0.975 0,-0.697 0.467,-0.969 0.977,-0.969 h 2.859 V 49.356 h -2.859 c -0.51,0 -0.977,-0.269 -0.977,-0.973 0,-0.701 0.467,-0.973 0.977,-0.973 h 4.811 v 13.203 h 1.882 z"
                 id="path3317"
                 inkscape:connector-curvature="0"
                 style="fill:#ffffff" /><path
                 d="m 24.546,60.614 v -3.936 c 0,-0.565 0.25,-0.973 0.968,-0.973 0.719,0 0.974,0.408 0.974,0.973 v 4.905 c 0,0.708 -0.463,0.975 -0.974,0.975 h -7.67 c -0.501,0 -0.973,-0.267 -0.973,-0.975 0,-0.697 0.472,-0.969 0.973,-0.969 h 2.86 V 49.356 h -2.86 c -0.501,0 -0.973,-0.269 -0.973,-0.973 0,-0.701 0.472,-0.973 0.973,-0.973 h 4.812 v 13.203 h 1.89 z"
                 id="path3319"
                 inkscape:connector-curvature="0"
                 style="fill:#ffffff" /><path
                 d="m 38.926,47.248 c 1.077,0 1.947,0.873 1.947,1.948 v 11.246 c 0,1.095 -0.833,1.953 -1.947,1.953 h -5.724 c -1.108,0 -1.954,-0.858 -1.954,-1.953 V 49.195 c 0,-1.075 0.881,-1.948 1.954,-1.948 h 5.724 z m 0,13.193 V 49.195 h -5.724 v 11.246 h 5.724 z"
                 id="path3321"
                 inkscape:connector-curvature="0"
                 style="fill:#ffffff" /><path
                 d="m 11.111,60.684 v -3.936 c 0,-0.565 0.254,-0.972 0.97,-0.972 0.718,0 0.975,0.407 0.975,0.972 v 4.905 c 0,0.707 -0.465,0.975 -0.975,0.975 H 4.41 c -0.498,0 -0.973,-0.268 -0.973,-0.975 0,-0.696 0.475,-0.97 0.973,-0.97 H 7.27 V 49.426 H 4.41 c -0.498,0 -0.973,-0.268 -0.973,-0.971 0,-0.7 0.475,-0.974 0.973,-0.974 h 4.813 v 13.203 h 1.888 z"
                 id="path3323"
                 inkscape:connector-curvature="0"
                 style="fill:#ffffff" /><path
                 d="m 138.162,47.248 c 1.074,0 1.949,0.873 1.949,1.948 v 11.246 c 0,1.095 -0.836,1.953 -1.949,1.953 h -5.717 c -1.109,0 -1.951,-0.858 -1.951,-1.953 V 49.195 c 0,-1.075 0.879,-1.948 1.951,-1.948 h 5.717 z m 0,13.193 V 49.195 h -5.717 v 11.246 h 5.717 z"
                 id="path3325"
                 inkscape:connector-curvature="0"
                 style="fill:#ffffff" /><path
                 d="m 53.141,60.441 v -3.933 c 0,-0.559 0.247,-0.97 0.973,-0.97 0.718,0 0.973,0.411 0.973,0.97 v 4.912 c 0,0.697 -0.466,0.974 -0.973,0.974 h -7.672 c -0.503,0 -0.968,-0.277 -0.968,-0.974 0,-0.704 0.465,-0.979 0.968,-0.979 h 2.864 V 49.195 h -2.864 c -0.503,0 -0.968,-0.277 -0.968,-0.975 0,-0.7 0.465,-0.973 0.968,-0.973 h 4.81 V 60.44 h 1.889 z"
                 id="path3327"
                 inkscape:connector-curvature="0"
                 style="fill:#ffffff" /></g></g></g></g><linearGradient
         id="idObservableCurveOpacityGradient"
         gradientUnits="userSpaceOnUse"
         x1="72"
         y1="123.8174"
         x2="72"
         y2="2.9126"><stop
           offset="0"
           style="stop-color:#FFFFFF;stop-opacity:0.15"
           id="stop3330" /><stop
           offset="1"
           style="stop-color:#FFFFFF;stop-opacity:0.25"
           id="stop3332" /></linearGradient><path
         d="M 123.814,2.912 H 20.185 c -9.505,0 -17.271,7.769 -17.271,17.27 V 123.817 C 14.615,20.68 141.086,20.182 141.086,20.182 c 0,-9.501 -7.766,-17.27 -17.272,-17.27 z"
         id="path3334"
         style="fill:url(#idObservableCurveOpacityGradient)"
         inkscape:connector-curvature="0" /><g
         id="g3336"><g
           id="g3338"><text
             transform="translate(23.1543,127.5273)"
             font-size="20.6661"
             id="text3340"
             style="font-size:20.66609955px;fill:#ffffff;font-family:Calibri-Bold">Observable</text>
</g></g></g></switch></svg>